0
SECTION
2
HEADER
9
$INSUNITS
70
4
9
$ACADVER
1
AC1014
9
$HANDSEED
5
FFFF
0
ENDSEC
0
SECTION
2
TABLES
0
TABLE
2
VPORT
5
8
100
AcDbSymbolTable
0
ENDTAB
0
TABLE
2
LTYPE
5
5
100
AcDbSymbolTable
0
LTYPE
5
14
100
AcDbSymbolTableRecord
100
AcDbLinetypeTableRecord
2
BYBLOCK
70
0
0
LTYPE
5
15
100
AcDbSymbolTableRecord
100
AcDbLinetypeTableRecord
2
BYLAYER
70
0
0
ENDTAB
0
TABLE
2
LAYER
5
2
100
AcDbSymbolTable
70
2
0
LAYER
5
50
100
AcDbSymbolTableRecord
100
AcDbLayerTableRecord
2
0
70
0
6
CONTINUOUS
0
ENDTAB
0
TABLE
2
STYLE
5
3
100
AcDbSymbolTable
70
1
0
STYLE
5
11
100
AcDbSymbolTableRecord
100
AcDbTextStyleTableRecord
2
STANDARD
70
0
0
ENDTAB
0
TABLE
2
VIEW
5
6
100
AcDbSymbolTable
70
0
0
ENDTAB
0
TABLE
2
UCS
5
7
100
AcDbSymbolTable
70
0
0
ENDTAB
0
TABLE
2
APPID
5
9
100
AcDbSymbolTable
70
2
0
APPID
5
12
100
AcDbSymbolTableRecord
100
AcDbRegAppTableRecord
2
ACAD
70
0
0
ENDTAB
0
TABLE
2
DIMSTYLE
5
A
100
AcDbSymbolTable
70
1
0
ENDTAB
0
TABLE
2
BLOCK_RECORD
5
1
100
AcDbSymbolTable
70
1
0
BLOCK_RECORD
5
1F
100
AcDbSymbolTableRecord
100
AcDbBlockTableRecord
2
*MODEL_SPACE
0
BLOCK_RECORD
5
1B
100
AcDbSymbolTableRecord
100
AcDbBlockTableRecord
2
*PAPER_SPACE
0
ENDTAB
0
ENDSEC
0
SECTION
2
BLOCKS
0
BLOCK
5
20
100
AcDbEntity
100
AcDbBlockBegin
2
*MODEL_SPACE
0
ENDBLK
5
21
100
AcDbEntity
100
AcDbBlockEnd
0
BLOCK
5
1C
100
AcDbEntity
100
AcDbBlockBegin
2
*PAPER_SPACE
0
ENDBLK
5
1D
100
AcDbEntity
100
AcDbBlockEnd
0
ENDSEC
0
SECTION
2
ENTITIES
0
LWPOLYLINE
5
100
100
AcDbEntity
8
0
100
AcDbPolyline
90
45
70
1
43
0.0
10
-321.75113719774617
20
469.87139537289414
42
0.41421356237313667
10
-322.75113719774617
20
468.87139537289414
10
-322.75113719774617
20
444.00592715739663
42
-0.41421356237309503
10
-323.75113719774617
20
443.00592715739663
10
-344.34176666901146
20
443.00592715739651
42
-0.41421356237309503
10
-345.34176666901146
20
444.00592715739657
10
-345.34176666901146
20
468.87139537289397
42
0.41421356237313667
10
-346.34176666901146
20
469.87139537289403
10
-387.11679561126687
20
469.87139537289409
42
0.41421356237313667
10
-388.11679561126687
20
468.87139537289414
10
-388.11679561126687
20
425.12368030429582
42
-0.41421356237315748
10
-389.11679561126709
20
424.12368030429582
10
-437.38088936169061
20
424.12368030430713
42
-0.41421356237303258
10
-438.38088936169044
20
425.12368030430713
10
-438.38088936169044
20
427.87139537295002
42
0.41421356237313667
10
-439.38088936169044
20
428.87139537295008
10
-485.71778945017797
20
428.87139537295008
10
-501.00233996419496
20
428.87139537295008
42
-0.41421356237309503
10
-502.00233996419502
20
429.87139537295008
10
-502.00233996419502
20
468.87139537289414
42
0.41421356237313667
10
-503.00233996419502
20
469.87139537289414
10
-643.85134850458701
20
469.87139537289409
42
0.4142135623731783
10
-644.85134850458712
20
468.87139537289414
10
-644.85134850458678
20
429.87139537291
42
-0.41421356237309503
10
-645.85134850458689
20
428.87139537291
10
-683.35134849553299
20
428.87139537291006
42
0.41421356237330315
10
-683.85134849553299
20
428.37139537291
10
-683.85134849553299
20
345.83939537301285
42
0.41421356237315748
10
-682.8513484955331
20
344.83939537301285
10
-653.35134849630822
20
344.83939537301268
42
-0.41421356237309503
10
-652.35134849630822
20
343.83939537301274
10
-652.35134849630811
20
316.33939537301268
42
-0.41421356237309503
10
-653.35134849630822
20
315.33939537301268
10
-682.85134849553299
20
315.33939537301274
42
0.4142135623731783
10
-683.8513484955331
20
314.33939537301274
10
-683.85134849553299
20
195.37139537289804
42
0.41421356237328233
10
-683.35134849553299
20
194.87139537289804
10
-196.85134849054003
20
194.87139537289804
42
0.41421356237307422
10
-195.85134849054
20
195.87139537289804
10
-195.85134849054
20
428.37139537291
42
0.41421356237301177
10
-196.35134849054
20
428.87139537291006
10
-225.85134848148499
20
428.87139537291006
42
-0.41421356237308671
10
-230.85134848148499
20
433.87139537291006
10
-230.85134848148499
20
469.37139537289403
42
0.41421356237301177
10
-231.35134848148499
20
469.87139537289409
0
CIRCLE
5
101
100
AcDbEntity
8
0
100
AcDbCircle
10
-207.85134849552867
20
357.70233601608493
30
0
40
7.0000000000000284
210
0
220
0
230
1
0
LWPOLYLINE
5
102
100
AcDbEntity
8
0
100
AcDbPolyline
90
12
70
1
43
0.0
10
-650.70111892939121
20
257.62368030434027
42
0.4142135623731783
10
-649.70111892939133
20
256.62368030434033
10
-643.35088936172474
20
256.62368030434016
42
-0.41421356237316787
10
-642.35088936172474
20
255.62368030433998
10
-642.35088936173065
20
231.12368030434129
42
-0.41421356237310542
10
-643.35088936173088
20
230.12368030434152
10
-673.05134849705519
20
230.12368030434857
42
-0.4142135623730846
10
-674.05134849705496
20
231.12368030434877
10
-674.05134849704518
20
272.6236803043405
42
-0.4142135623730222
10
-673.0513484970453
20
273.62368030434027
10
-651.70111892939121
20
273.62368030434021
42
-0.41421356237309503
10
-650.70111892939121
20
272.62368030434027
0
CIRCLE
5
103
100
AcDbEntity
8
0
100
AcDbCircle
10
-651.85134849054191
20
399.87139537301289
30
0
40
2.2500000000000853
210
0
220
-0
230
1
0
CIRCLE
5
104
100
AcDbEntity
8
0
100
AcDbCircle
10
-227.85134849553103
20
399.87139537301294
30
0
40
2.2500000000000142
210
-0
220
0
230
1
0
CIRCLE
5
105
100
AcDbEntity
8
0
100
AcDbCircle
10
-667.85134849055044
20
379.8713953730126
30
0
40
7.0000000000000284
210
0
220
0
230
1
0
CIRCLE
5
106
100
AcDbEntity
8
0
100
AcDbCircle
10
-667.85134849054248
20
419.8713953730126
30
0
40
7.0000000000000284
210
0
220
0
230
1
0
CIRCLE
5
107
100
AcDbEntity
8
0
100
AcDbCircle
10
-207.85134849552347
20
379.87139537301243
30
0
40
7.0000000000000364
210
0
220
-0
230
1
0
CIRCLE
5
108
100
AcDbEntity
8
0
100
AcDbCircle
10
-207.85134849553145
20
419.87139537301243
30
0
40
7.0000000000000364
210
0
220
-0
230
1
0
ENDSEC
0
SECTION
2
OBJECTS
0
DICTIONARY
5
C
100
AcDbDictionary
3
ACAD_GROUP
350
D
3
ACAD_MLINESTYLE
350
17
0
DICTIONARY
5
D
100
AcDbDictionary
0
DICTIONARY
5
1A
330
C
100
AcDbDictionary
0
DICTIONARY
5
17
100
AcDbDictionary
0
ENDSEC
0
EOF
