0
SECTION
2
HEADER
9
$INSUNITS
70
4
9
$ACADVER
1
AC1014
9
$HANDSEED
5
FFFF
0
ENDSEC
0
SECTION
2
TABLES
0
TABLE
2
VPORT
5
8
100
AcDbSymbolTable
0
ENDTAB
0
TABLE
2
LTYPE
5
5
100
AcDbSymbolTable
0
LTYPE
5
14
100
AcDbSymbolTableRecord
100
AcDbLinetypeTableRecord
2
BYBLOCK
70
0
0
LTYPE
5
15
100
AcDbSymbolTableRecord
100
AcDbLinetypeTableRecord
2
BYLAYER
70
0
0
ENDTAB
0
TABLE
2
LAYER
5
2
100
AcDbSymbolTable
70
2
0
LAYER
5
50
100
AcDbSymbolTableRecord
100
AcDbLayerTableRecord
2
0
70
0
6
CONTINUOUS
0
ENDTAB
0
TABLE
2
STYLE
5
3
100
AcDbSymbolTable
70
1
0
STYLE
5
11
100
AcDbSymbolTableRecord
100
AcDbTextStyleTableRecord
2
STANDARD
70
0
0
ENDTAB
0
TABLE
2
VIEW
5
6
100
AcDbSymbolTable
70
0
0
ENDTAB
0
TABLE
2
UCS
5
7
100
AcDbSymbolTable
70
0
0
ENDTAB
0
TABLE
2
APPID
5
9
100
AcDbSymbolTable
70
2
0
APPID
5
12
100
AcDbSymbolTableRecord
100
AcDbRegAppTableRecord
2
ACAD
70
0
0
ENDTAB
0
TABLE
2
DIMSTYLE
5
A
100
AcDbSymbolTable
70
1
0
ENDTAB
0
TABLE
2
BLOCK_RECORD
5
1
100
AcDbSymbolTable
70
1
0
BLOCK_RECORD
5
1F
100
AcDbSymbolTableRecord
100
AcDbBlockTableRecord
2
*MODEL_SPACE
0
BLOCK_RECORD
5
1B
100
AcDbSymbolTableRecord
100
AcDbBlockTableRecord
2
*PAPER_SPACE
0
ENDTAB
0
ENDSEC
0
SECTION
2
BLOCKS
0
BLOCK
5
20
100
AcDbEntity
100
AcDbBlockBegin
2
*MODEL_SPACE
0
ENDBLK
5
21
100
AcDbEntity
100
AcDbBlockEnd
0
BLOCK
5
1C
100
AcDbEntity
100
AcDbBlockBegin
2
*PAPER_SPACE
0
ENDBLK
5
1D
100
AcDbEntity
100
AcDbBlockEnd
0
ENDSEC
0
SECTION
2
ENTITIES
0
LWPOLYLINE
5
100
100
AcDbEntity
8
0
100
AcDbPolyline
90
52
70
1
43
0.0
10
-322.88699737000354
20
-79.128604627098412
42
0.41421356237307683
10
-321.88699737000354
20
-80.128604627098355
10
-244.85134851954385
20
-80.128604627098397
42
0.41421356237301177
10
-244.35134851954388
20
-79.628604627098412
10
-244.35134851954177
20
-46.128604627098362
42
-0.41421356237307422
10
-243.85134851954177
20
-45.628604627098397
10
-231.35134848148496
20
-45.628604627098426
42
0.4142135623730222
10
-230.85134848148499
20
-45.128604627098397
10
-230.85134848148499
20
-44.1286046271141
42
-0.41421356237309398
10
-225.85134848148499
20
-39.1286046271141
10
-196.35134849054
20
-39.1286046271142
42
0.41421356237296497
10
-195.85134849054
20
-38.628604627114001
10
-195.85134849054
20
87.371395372796599
42
0.41421356237309503
10
-196.35134849053995
20
87.87139537279657
10
-214.07430877465652
20
87.871395372797693
42
-0.41421356237310542
10
-214.57430877465652
20
88.37139537279775
10
-214.57430877464989
20
194.37139537289798
42
0.41421356237307422
10
-215.07430877464992
20
194.87139537289804
10
-683.35134849553299
20
194.87139537289804
42
0.41421356237330315
10
-683.85134849553299
20
194.37139537289801
10
-683.85134849553299
20
-38.6286046271141
42
0.41421356237345142
10
-683.35134849553299
20
-39.1286046271141
10
-653.85134850458815
20
-39.128604627114115
42
-0.41421356237309398
10
-648.85134850458815
20
-44.1286046271141
10
-648.85134850458815
20
-45.12860462709849
42
0.41421356237295454
10
-648.35134850458701
20
-45.628604627098504
10
-635.85134848969392
20
-45.628604627098511
42
-0.41421356237310542
10
-635.35134848969403
20
-46.128604627098504
10
-635.35134848969517
20
-79.628604627098383
42
0.41421356237320428
10
-634.85134848969517
20
-80.128604627098383
10
-569.67734848969371
20
-80.128604627098397
42
0.41421356237304563
10
-568.67734848969371
20
-79.128604627098412
10
-568.67734848969371
20
-56.128604627097722
42
-0.41421356237309503
10
-567.67734848969371
20
-55.128604627097729
10
-537.67734848969371
20
-55.128604627098738
42
-0.41421356237309503
10
-536.67734848969371
20
-56.128604627098753
10
-536.67734848969371
20
-79.128604627098412
42
0.41421356237304563
10
-535.67734848969371
20
-80.128604627098383
10
-442.1048893666939
20
-80.128604627098397
42
0.41421356237304563
10
-441.1048893666939
20
-79.128604627098412
10
-441.10488936669401
20
-44.876319695886707
42
-0.41421356237311585
10
-440.1048893666939
20
-43.876319695886714
10
-390.60488936669395
20
-43.876319695889791
42
-0.41421356237307944
10
-389.60488936669401
20
-44.876319695889819
10
-389.60488936669401
20
-79.128604627098412
42
0.41421356237304563
10
-388.60488936669401
20
-80.128604627098383
10
-345.22660175268391
20
-80.128604627098397
42
0.41421356237307683
10
-344.22660175268385
20
-79.128604627098412
10
-344.22660175268391
20
-56.274138909997689
42
-0.41421356237310025
10
-343.22660175268391
20
-55.274138909997674
10
-323.88699737000366
20
-55.27413890999766
42
-0.41421356237310025
10
-322.88699737000366
20
-56.274138909997689
0
CIRCLE
5
101
100
AcDbEntity
8
0
100
AcDbCircle
10
-667.85134849054828
20
31.871395372783269
30
0
40
7.0000000000000284
210
0
220
0
230
1
0
CIRCLE
5
102
100
AcDbEntity
8
0
100
AcDbCircle
10
-207.85134849552128
20
31.871395372783127
30
0
40
6.999999999999992
210
0
220
0
230
1
0
CIRCLE
5
103
100
AcDbEntity
8
0
100
AcDbCircle
10
-207.85134849553071
20
-30.128604627217147
30
0
40
6.9999999999998463
210
0
220
0
230
1
0
CIRCLE
5
104
100
AcDbEntity
8
0
100
AcDbCircle
10
-207.85134849552267
20
9.8713953727828603
30
0
40
6.9999999999998428
210
0
220
0
230
1
0
CIRCLE
5
105
100
AcDbEntity
8
0
100
AcDbCircle
10
-667.8513484905418
20
-30.128604627217083
30
0
40
7.0000000000000284
210
0
220
0
230
1
0
CIRCLE
5
106
100
AcDbEntity
8
0
100
AcDbCircle
10
-667.85134849054975
20
9.8713953727829384
30
0
40
7.0000000000000284
210
0
220
0
230
1
0
CIRCLE
5
107
100
AcDbEntity
8
0
100
AcDbCircle
10
-227.85134849553103
20
-10.128604627217024
30
0
40
2.2500000000000142
210
-0
220
0
230
1
0
CIRCLE
5
108
100
AcDbEntity
8
0
100
AcDbCircle
10
-651.85134849054202
20
-10.128604627216982
30
0
40
2.2499999999999432
210
0
220
-0
230
1
0
ENDSEC
0
SECTION
2
OBJECTS
0
DICTIONARY
5
C
100
AcDbDictionary
3
ACAD_GROUP
350
D
3
ACAD_MLINESTYLE
350
17
0
DICTIONARY
5
D
100
AcDbDictionary
0
DICTIONARY
5
1A
330
C
100
AcDbDictionary
0
DICTIONARY
5
17
100
AcDbDictionary
0
ENDSEC
0
EOF
