0
SECTION
2
HEADER
9
$INSUNITS
70
4
9
$ACADVER
1
AC1014
9
$HANDSEED
5
FFFF
0
ENDSEC
0
SECTION
2
TABLES
0
TABLE
2
VPORT
5
8
100
AcDbSymbolTable
0
ENDTAB
0
TABLE
2
LTYPE
5
5
100
AcDbSymbolTable
0
LTYPE
5
14
100
AcDbSymbolTableRecord
100
AcDbLinetypeTableRecord
2
BYBLOCK
70
0
0
LTYPE
5
15
100
AcDbSymbolTableRecord
100
AcDbLinetypeTableRecord
2
BYLAYER
70
0
0
ENDTAB
0
TABLE
2
LAYER
5
2
100
AcDbSymbolTable
70
2
0
LAYER
5
50
100
AcDbSymbolTableRecord
100
AcDbLayerTableRecord
2
0
70
0
6
CONTINUOUS
0
ENDTAB
0
TABLE
2
STYLE
5
3
100
AcDbSymbolTable
70
1
0
STYLE
5
11
100
AcDbSymbolTableRecord
100
AcDbTextStyleTableRecord
2
STANDARD
70
0
0
ENDTAB
0
TABLE
2
VIEW
5
6
100
AcDbSymbolTable
70
0
0
ENDTAB
0
TABLE
2
UCS
5
7
100
AcDbSymbolTable
70
0
0
ENDTAB
0
TABLE
2
APPID
5
9
100
AcDbSymbolTable
70
2
0
APPID
5
12
100
AcDbSymbolTableRecord
100
AcDbRegAppTableRecord
2
ACAD
70
0
0
ENDTAB
0
TABLE
2
DIMSTYLE
5
A
100
AcDbSymbolTable
70
1
0
ENDTAB
0
TABLE
2
BLOCK_RECORD
5
1
100
AcDbSymbolTable
70
1
0
BLOCK_RECORD
5
1F
100
AcDbSymbolTableRecord
100
AcDbBlockTableRecord
2
*MODEL_SPACE
0
BLOCK_RECORD
5
1B
100
AcDbSymbolTableRecord
100
AcDbBlockTableRecord
2
*PAPER_SPACE
0
ENDTAB
0
ENDSEC
0
SECTION
2
BLOCKS
0
BLOCK
5
20
100
AcDbEntity
100
AcDbBlockBegin
2
*MODEL_SPACE
0
ENDBLK
5
21
100
AcDbEntity
100
AcDbBlockEnd
0
BLOCK
5
1C
100
AcDbEntity
100
AcDbBlockBegin
2
*PAPER_SPACE
0
ENDBLK
5
1D
100
AcDbEntity
100
AcDbBlockEnd
0
ENDSEC
0
SECTION
2
ENTITIES
0
LWPOLYLINE
5
100
100
AcDbEntity
8
0
100
AcDbPolyline
90
72
70
1
43
0.0
10
-337.64592541696737
20
-78.637474934113655
42
0.5739510664613876
10
-336.77483895474404
20
-80.128604627098369
10
-244.85134851954385
20
-80.128604627098397
42
0.41421356237301177
10
-244.35134851954388
20
-79.628604627098412
10
-244.35134851954177
20
-46.128604627098362
42
-0.41421356237307422
10
-243.85134851954177
20
-45.628604627098397
10
-231.35134848148496
20
-45.628604627098426
42
0.4142135623730222
10
-230.85134848148499
20
-45.128604627098397
10
-230.85134848148499
20
-44.1286046271141
42
-0.41421356237309398
10
-225.85134848148499
20
-39.1286046271141
10
-196.35134849054
20
-39.1286046271142
42
0.41421356237296497
10
-195.85134849054
20
-38.628604627114001
10
-195.85134849054
20
87.371395372796599
42
0.41421356237309503
10
-196.35134849053995
20
87.87139537279657
10
-214.07430877465652
20
87.871395372797693
42
-0.41421356237310542
10
-214.57430877465652
20
88.37139537279775
10
-214.57430877464989
20
194.37139537289798
42
0.41421356237307422
10
-215.07430877464992
20
194.87139537289804
10
-683.35134849553299
20
194.87139537289804
42
0.41421356237330315
10
-683.85134849553299
20
194.37139537289801
10
-683.85134849553299
20
-38.6286046271141
42
0.41421356237345142
10
-683.35134849553299
20
-39.1286046271141
10
-653.85134850458815
20
-39.128604627114115
42
-0.41421356237309398
10
-648.85134850458815
20
-44.1286046271141
10
-648.85134850458815
20
-45.12860462709849
42
0.41421356237295454
10
-648.35134850458701
20
-45.628604627098504
10
-635.85134848969392
20
-45.628604627098511
42
-0.41421356237310542
10
-635.35134848969403
20
-46.128604627098504
10
-635.35134848969517
20
-79.628604627098383
42
0.41421356237320428
10
-634.85134848969517
20
-80.128604627098383
10
-569.67734848969371
20
-80.128604627098397
42
0.41421356237304563
10
-568.67734848969371
20
-79.128604627098412
10
-568.67734848969371
20
-56.128604627097722
42
-0.41421356237309503
10
-567.67734848969371
20
-55.128604627097729
10
-537.67734848969371
20
-55.128604627098738
42
-0.41421356237309503
10
-536.67734848969371
20
-56.128604627098753
10
-536.67734848969371
20
-79.128604627098412
42
0.41421356237304563
10
-535.67734848969371
20
-80.128604627098383
10
-442.1048893666939
20
-80.128604627098397
42
0.41421356237304563
10
-441.1048893666939
20
-79.128604627098412
10
-441.10488936669401
20
-44.876319695886707
42
-0.41421356237311585
10
-440.1048893666939
20
-43.876319695886714
10
-390.60488936669395
20
-43.876319695889791
42
-0.41421356237307944
10
-389.60488936669401
20
-44.876319695889819
10
-389.60488936669401
20
-79.128604627098412
42
0.41421356237304563
10
-388.60488936669401
20
-80.128604627098383
10
-344.81078062479781
20
-80.128604627098397
42
0.27068753445843696
10
-343.93969416257448
20
-79.619734320083126
10
-340.43819646586724
20
-73.40934369480604
42
0.41421356237303564
10
-340.8181532351058
20
-72.04712753959808
10
-343.43141262174873
20
-70.573738460658987
42
-0.4142135623731189
10
-343.81136939098724
20
-69.211522305450856
10
-341.93378057477412
20
-65.881358760491267
42
0.41421356237309848
10
-342.31373734401274
20
-64.519142605283193
10
-342.37204009640948
20
-64.486270767495967
42
-0.99999999999999989
10
-339.7089552982419
20
-59.853980446751137
10
-339.68960909376625
20
-59.864888084370023
42
0.41421356237311341
10
-338.32739293855809
20
-59.484931315131348
10
-336.44442399628576
20
-56.145225372221049
42
-0.41421356237309154
10
-335.08220784107777
20
-55.765268602982204
10
-323.75808383222704
20
-62.149954611751753
42
-0.41421356237313628
10
-323.37812706298826
20
-63.512170766959819
10
-325.26109600503469
20
-66.851876709469352
42
0.41421356250801922
10
-324.88113923539447
20
-68.214092864903762
10
-324.86179303154995
20
-68.22500050269575
42
-0.99999999999999989
10
-327.44696473386784
20
-72.901219223781553
10
-327.5052674862701
20
-72.86834738599137
42
0.41421356237305823
10
-328.86748364147809
20
-73.248304155229988
10
-330.74507245769166
20
-76.578467700191624
42
-0.41421356237314094
10
-332.10728861289988
20
-76.958424469430284
10
-334.72054799954276
20
-75.485035390491248
42
0.41421356237308277
10
-336.08276415475098
20
-75.864992159729809
0
CIRCLE
5
101
100
AcDbEntity
8
0
100
AcDbCircle
10
-667.85134849054828
20
31.871395372783269
30
0
40
7.0000000000000284
210
0
220
0
230
1
0
CIRCLE
5
102
100
AcDbEntity
8
0
100
AcDbCircle
10
-207.85134849552128
20
31.871395372783127
30
0
40
6.999999999999992
210
0
220
0
230
1
0
CIRCLE
5
103
100
AcDbEntity
8
0
100
AcDbCircle
10
-207.85134849553071
20
-30.128604627217147
30
0
40
6.9999999999998463
210
0
220
0
230
1
0
CIRCLE
5
104
100
AcDbEntity
8
0
100
AcDbCircle
10
-207.85134849552267
20
9.8713953727828603
30
0
40
6.9999999999998428
210
0
220
0
230
1
0
CIRCLE
5
105
100
AcDbEntity
8
0
100
AcDbCircle
10
-667.8513484905418
20
-30.128604627217083
30
0
40
7.0000000000000284
210
0
220
0
230
1
0
CIRCLE
5
106
100
AcDbEntity
8
0
100
AcDbCircle
10
-667.85134849054975
20
9.8713953727829384
30
0
40
7.0000000000000284
210
0
220
0
230
1
0
CIRCLE
5
107
100
AcDbEntity
8
0
100
AcDbCircle
10
-227.85134849553103
20
-10.128604627217024
30
0
40
2.2500000000000142
210
-0
220
0
230
1
0
CIRCLE
5
108
100
AcDbEntity
8
0
100
AcDbCircle
10
-651.85134849054202
20
-10.128604627216982
30
0
40
2.2499999999999432
210
0
220
-0
230
1
0
ENDSEC
0
SECTION
2
OBJECTS
0
DICTIONARY
5
C
100
AcDbDictionary
3
ACAD_GROUP
350
D
3
ACAD_MLINESTYLE
350
17
0
DICTIONARY
5
D
100
AcDbDictionary
0
DICTIONARY
5
1A
330
C
100
AcDbDictionary
0
DICTIONARY
5
17
100
AcDbDictionary
0
ENDSEC
0
EOF
