0
SECTION
2
HEADER
9
$INSUNITS
70
4
9
$ACADVER
1
AC1014
9
$HANDSEED
5
FFFF
0
ENDSEC
0
SECTION
2
TABLES
0
TABLE
2
VPORT
5
8
100
AcDbSymbolTable
0
ENDTAB
0
TABLE
2
LTYPE
5
5
100
AcDbSymbolTable
0
LTYPE
5
14
100
AcDbSymbolTableRecord
100
AcDbLinetypeTableRecord
2
BYBLOCK
70
0
0
LTYPE
5
15
100
AcDbSymbolTableRecord
100
AcDbLinetypeTableRecord
2
BYLAYER
70
0
0
ENDTAB
0
TABLE
2
LAYER
5
2
100
AcDbSymbolTable
70
2
0
LAYER
5
50
100
AcDbSymbolTableRecord
100
AcDbLayerTableRecord
2
0
70
0
6
CONTINUOUS
0
ENDTAB
0
TABLE
2
STYLE
5
3
100
AcDbSymbolTable
70
1
0
STYLE
5
11
100
AcDbSymbolTableRecord
100
AcDbTextStyleTableRecord
2
STANDARD
70
0
0
ENDTAB
0
TABLE
2
VIEW
5
6
100
AcDbSymbolTable
70
0
0
ENDTAB
0
TABLE
2
UCS
5
7
100
AcDbSymbolTable
70
0
0
ENDTAB
0
TABLE
2
APPID
5
9
100
AcDbSymbolTable
70
2
0
APPID
5
12
100
AcDbSymbolTableRecord
100
AcDbRegAppTableRecord
2
ACAD
70
0
0
ENDTAB
0
TABLE
2
DIMSTYLE
5
A
100
AcDbSymbolTable
70
1
0
ENDTAB
0
TABLE
2
BLOCK_RECORD
5
1
100
AcDbSymbolTable
70
1
0
BLOCK_RECORD
5
1F
100
AcDbSymbolTableRecord
100
AcDbBlockTableRecord
2
*MODEL_SPACE
0
BLOCK_RECORD
5
1B
100
AcDbSymbolTableRecord
100
AcDbBlockTableRecord
2
*PAPER_SPACE
0
ENDTAB
0
ENDSEC
0
SECTION
2
BLOCKS
0
BLOCK
5
20
100
AcDbEntity
100
AcDbBlockBegin
2
*MODEL_SPACE
0
ENDBLK
5
21
100
AcDbEntity
100
AcDbBlockEnd
0
BLOCK
5
1C
100
AcDbEntity
100
AcDbBlockBegin
2
*PAPER_SPACE
0
ENDBLK
5
1D
100
AcDbEntity
100
AcDbBlockEnd
0
ENDSEC
0
SECTION
2
ENTITIES
0
CIRCLE
5
100
100
AcDbEntity
8
0
100
AcDbCircle
10
-230.00000000000003
20
215.00000000000003
30
0
40
2.6249999999999929
210
0
220
0
230
1
0
CIRCLE
5
101
100
AcDbEntity
8
0
100
AcDbCircle
10
-230.00000000000003
20
-219.99999999999997
30
0
40
2.6249999999999929
210
0
220
0
230
1
0
CIRCLE
5
102
100
AcDbEntity
8
0
100
AcDbCircle
10
230.00000000000006
20
215.00000000000003
30
0
40
2.6250000000000284
210
0
220
0
230
1
0
CIRCLE
5
103
100
AcDbEntity
8
0
100
AcDbCircle
10
230.00000000000006
20
-219.99999999999997
30
0
40
2.6249999999999929
210
0
220
0
230
1
0
LWPOLYLINE
5
104
100
AcDbEntity
8
0
100
AcDbPolyline
90
4
70
1
43
0.0
10
-182.70037576374907
20
-181.06990886162632
42
0.99999999999999989
10
-191.70037576374907
20
-181.06990886149961
10
-191.70037576382555
20
-186.50763120133126
42
1.9249505911485398
10
-182.70037576382555
20
-186.50763120145791
0
LWPOLYLINE
5
105
100
AcDbEntity
8
0
100
AcDbPolyline
90
4
70
1
43
0.0
10
161.75411258080985
20
-172.74068924031201
42
0.99999999999999989
10
152.7541125808099
20
-172.74068924018604
10
152.75411258073373
20
-178.17841158001755
42
1.9249505911485418
10
161.7541125807337
20
-178.1784115801436
0
LWPOLYLINE
5
106
100
AcDbEntity
8
0
100
AcDbPolyline
90
4
70
1
43
0.0
10
-196.70037576374904
20
-181.06990886143041
42
0.99999999999999989
10
-205.70037576374901
20
-181.06990886130365
10
-205.70037576382558
20
-186.50763120113513
42
1.9249505911485461
10
-196.70037576382558
20
-186.50763120126192
0
LWPOLYLINE
5
107
100
AcDbEntity
8
0
100
AcDbPolyline
90
4
70
1
43
0.0
10
179.75411258080985
20
-172.740689240564
42
0.99999999999999989
10
170.75411258080987
20
-172.74068924043803
10
170.75411258073373
20
-178.1784115802696
42
1.9249505911485274
10
179.7541125807337
20
-178.17841158039556
0
CIRCLE
5
108
100
AcDbEntity
8
0
100
AcDbCircle
10
-166.40982820867907
20
-184.99068923576402
30
0
40
5.1000000000000156
210
0
220
0
230
1
0
CIRCLE
5
109
100
AcDbEntity
8
0
100
AcDbCircle
10
-77.028492755281007
20
-184.99068923486794
30
0
40
5.1000000000000068
210
0
220
0
230
1
0
CIRCLE
5
110
100
AcDbEntity
8
0
100
AcDbCircle
10
22.745931805843966
20
-184.99068923608297
30
0
40
5.1000000000000023
210
0
220
0
230
1
0
CIRCLE
5
111
100
AcDbEntity
8
0
100
AcDbCircle
10
-52.681711763311043
20
-184.990689235209
30
0
40
5.099999999999989
210
0
220
0
230
1
0
CIRCLE
5
112
100
AcDbEntity
8
0
100
AcDbCircle
10
82.052193196534944
20
-184.99068923576402
30
0
40
5.0999999999999979
210
0
220
0
230
1
0
CIRCLE
5
113
100
AcDbEntity
8
0
100
AcDbCircle
10
95.474052177170961
20
-90.217265920820012
30
0
40
1.6000000000000014
210
0
220
0
230
1
0
LWPOLYLINE
5
114
100
AcDbEntity
8
0
100
AcDbPolyline
90
16
70
1
43
0.0
10
111.58117204631796
20
238.00000000000006
42
0.41421356237309764
10
109.58117204631797
20
240
10
-248.00000000000006
20
240.00000000000003
42
0.41421356237310025
10
-250.00000000000006
20
238.00000000000006
10
-250.00000000000003
20
-238.00000000000006
42
0.41421356237308982
10
-248.00000000000009
20
-240
10
248
20
-239.99999999999997
42
0.41421356237310025
10
250.00000000000003
20
-238
10
250.00000000000003
20
238.00000000000009
42
0.41421356237310025
10
248.00000000000006
20
240.00000000000003
10
203.41148188189783
20
240.00000000000003
42
0.41421356237310542
10
201.41148188189786
20
238.00000000000006
10
201.41148188189786
20
197.00000000067928
42
-0.41421356237103468
10
199.41148188191193
20
195.00000000067928
10
113.58117204633201
20
195.0000000000762
42
-0.41421356237515272
10
111.58117204631796
20
197.0000000000762
0
CIRCLE
5
115
100
AcDbEntity
8
0
100
AcDbCircle
10
95.474052178299971
20
-9.5332119244879721
30
0
40
1.5999999999999701
210
0
220
-0
230
1
0
CIRCLE
5
116
100
AcDbEntity
8
0
100
AcDbCircle
10
52.64532847813495
20
-159.38854222189096
30
0
40
1.6000000000000403
210
0
220
-0
230
1
0
CIRCLE
5
117
100
AcDbEntity
8
0
100
AcDbCircle
10
-70.354671521865015
20
-159.38854222016499
30
0
40
1.5999999999999701
210
0
220
-0
230
1
0
CIRCLE
5
118
100
AcDbEntity
8
0
100
AcDbCircle
10
-10.354671519548049
20
5.6114577789930209
30
0
40
1.6000000000000003
210
0
220
-0
230
1
0
CIRCLE
5
119
100
AcDbEntity
8
0
100
AcDbCircle
10
-90.35467151954802
20
5.6114577801160337
30
0
40
1.6000000000000003
210
0
220
-0
230
1
0
CIRCLE
5
120
100
AcDbEntity
8
0
100
AcDbCircle
10
-191.18339521887808
20
-85.217265916247953
30
0
40
1.6000000000000003
210
0
220
-0
230
1
0
CIRCLE
5
121
100
AcDbEntity
8
0
100
AcDbCircle
10
-175.2161876837761
20
129.65045890081905
30
0
40
2.5
210
0
220
-0
230
1
0
CIRCLE
5
122
100
AcDbEntity
8
0
100
AcDbCircle
10
-211.21618768377604
20
129.65045890132305
30
0
40
2.5
210
0
220
-0
230
1
0
CIRCLE
5
123
100
AcDbEntity
8
0
100
AcDbCircle
10
-193.21618768314207
20
174.91564592750882
30
0
40
2.5
210
0
220
-0
230
1
0
CIRCLE
5
124
100
AcDbEntity
8
0
100
AcDbCircle
10
-194.20037576353511
20
-165.90103959223595
30
0
40
2.3750000000018199
210
0
220
-0
230
1
0
CIRCLE
5
125
100
AcDbEntity
8
0
100
AcDbCircle
10
138.20881104511597
20
-47.725090779716979
30
0
40
1.5500000000000103
210
0
220
-0
230
1
0
CIRCLE
5
126
100
AcDbEntity
8
0
100
AcDbCircle
10
202.20881104511648
20
-47.725090780613009
30
0
40
1.5500000000000103
210
0
220
-0
230
1
0
CIRCLE
5
127
100
AcDbEntity
8
0
100
AcDbCircle
10
-164.93984046072509
20
213.76122187139663
30
0
40
5.9999999999999796
210
0
220
-0
230
1
0
ENDSEC
0
SECTION
2
OBJECTS
0
DICTIONARY
5
C
100
AcDbDictionary
3
ACAD_GROUP
350
D
3
ACAD_MLINESTYLE
350
17
0
DICTIONARY
5
D
100
AcDbDictionary
0
DICTIONARY
5
1A
330
C
100
AcDbDictionary
0
DICTIONARY
5
17
100
AcDbDictionary
0
ENDSEC
0
EOF
